0
SECTION
2
HEADER
9
$INSUNITS
70
4
9
$ACADVER
1
AC1014
9
$HANDSEED
5
FFFF
0
ENDSEC
0
SECTION
2
TABLES
0
TABLE
2
VPORT
5
8
100
AcDbSymbolTable
0
ENDTAB
0
TABLE
2
LTYPE
5
5
100
AcDbSymbolTable
0
LTYPE
5
14
100
AcDbSymbolTableRecord
100
AcDbLinetypeTableRecord
2
BYBLOCK
70
0
0
LTYPE
5
15
100
AcDbSymbolTableRecord
100
AcDbLinetypeTableRecord
2
BYLAYER
70
0
0
LTYPE
5
16
100
AcDbSymbolTableRecord
100
AcDbLinetypeTableRecord
2
DASHED
70
0
3
Dashed __ __ __ __ __ __ __ __ __ __ __ __ __ _
72
65
73
2
40
0.75
49
0.5
74
0
49
-0.25
74
0
0
ENDTAB
0
TABLE
2
LAYER
5
2
100
AcDbSymbolTable
70
2
0
LAYER
5
50
100
AcDbSymbolTableRecord
100
AcDbLayerTableRecord
2
0
70
0
62
7
6
CONTINUOUS
0
ENDTAB
0
TABLE
2
STYLE
5
3
100
AcDbSymbolTable
70
1
0
STYLE
5
11
100
AcDbSymbolTableRecord
100
AcDbTextStyleTableRecord
2
STANDARD
70
0
0
ENDTAB
0
TABLE
2
VIEW
5
6
100
AcDbSymbolTable
70
0
0
ENDTAB
0
TABLE
2
UCS
5
7
100
AcDbSymbolTable
70
0
0
ENDTAB
0
TABLE
2
APPID
5
9
100
AcDbSymbolTable
70
2
0
APPID
5
12
100
AcDbSymbolTableRecord
100
AcDbRegAppTableRecord
2
ACAD
70
0
0
ENDTAB
0
TABLE
2
DIMSTYLE
5
A
100
AcDbSymbolTable
70
1
0
ENDTAB
0
TABLE
2
BLOCK_RECORD
5
1
100
AcDbSymbolTable
70
1
0
BLOCK_RECORD
5
1F
100
AcDbSymbolTableRecord
100
AcDbBlockTableRecord
2
*MODEL_SPACE
0
BLOCK_RECORD
5
1B
100
AcDbSymbolTableRecord
100
AcDbBlockTableRecord
2
*PAPER_SPACE
0
ENDTAB
0
ENDSEC
0
SECTION
2
BLOCKS
0
BLOCK
5
20
100
AcDbEntity
100
AcDbBlockBegin
2
*MODEL_SPACE
0
ENDBLK
5
21
100
AcDbEntity
100
AcDbBlockEnd
0
BLOCK
5
1C
100
AcDbEntity
100
AcDbBlockBegin
2
*PAPER_SPACE
0
ENDBLK
5
1D
100
AcDbEntity
100
AcDbBlockEnd
0
ENDSEC
0
SECTION
2
ENTITIES
0
LWPOLYLINE
5
100
100
AcDbEntity
8
0
100
AcDbPolyline
90
4
70
1
43
0.0
10
-120.10050700053925
20
-7.9289323371461231
10
-127.17157481240474
20
-15.000000149011603
10
-129.2928951559644
20
-12.878679805451965
10
-122.22182734409891
20
-5.8076119935864847
0
CIRCLE
5
101
100
AcDbEntity
8
0
100
AcDbCircle
10
-98.36582989345095
20
-257.87425239632569
30
0
40
0.99999999999999645
210
0
220
-0
230
1
0
CIRCLE
5
102
100
AcDbEntity
8
0
100
AcDbCircle
10
-51.523718913048398
20
-257.82210094167618
30
0
40
0.99999999999999645
210
0
220
-0
230
1
0
CIRCLE
5
103
100
AcDbEntity
8
0
100
AcDbCircle
10
-88.727778686856439
20
40.032754433308646
30
0
40
0.99999999999999645
210
0
220
-0
230
1
0
CIRCLE
5
104
100
AcDbEntity
8
0
100
AcDbCircle
10
-61.227778686856446
20
40.012910096584491
30
0
40
0.99999999999999645
210
0
220
-0
230
1
0
LWPOLYLINE
5
105
100
AcDbEntity
8
0
100
AcDbPolyline
90
4
70
1
43
0.0
10
-120.00000178813934
20
-123.40648639719561
10
-92.853162768173689
20
-123.40648639719559
42
-0.99999999999999989
10
-92.853162768173689
20
-126.40648639719559
10
-120.00000178813934
20
-126.40648639719558
42
-0.99999999999999989
0
LWPOLYLINE
5
106
100
AcDbEntity
8
0
100
AcDbPolyline
90
4
70
1
43
0.0
10
-76.503162768173652
20
-107.15332541716126
10
-76.503162768173695
20
-80.006486397195587
42
-0.99999999999999989
10
-73.503162768173681
20
-80.006486397195587
10
-73.503162768173681
20
-107.15332541716126
42
-0.99999999999999989
0
LWPOLYLINE
5
107
100
AcDbEntity
8
0
100
AcDbPolyline
90
4
70
1
43
0.0
10
-76.503162768173652
20
-169.95332541716127
10
-76.503162768173695
20
-142.80648639719556
42
-0.99999999999999989
10
-73.503162768173681
20
-142.80648639719561
10
-73.503162768173681
20
-169.95332541716127
42
-0.99999999999999989
0
LWPOLYLINE
5
108
100
AcDbEntity
8
0
100
AcDbPolyline
90
4
70
1
43
0.0
10
-57.219827484169983
20
-123.50000186278704
10
-35.030258917564346
20
-123.50030708387513
42
-1.0203798917528739
10
-35.030258917564339
20
-126.49969664141517
10
-57.219827484148482
20
-126.50000186250325
42
-1.0000137552627939
0
CIRCLE
5
109
100
AcDbEntity
8
0
100
AcDbCircle
10
-75.00000111758709
20
-125.00000186264515
30
0
40
12.5
210
0
220
-0
230
1
0
LWPOLYLINE
5
110
100
AcDbEntity
8
0
100
AcDbPolyline
90
4
70
1
43
0.0
10
-48.939339018697311
20
56.060659362254455
10
-18.929498076013836
20
26.050726234065994
42
-1.0658130979494642
10
-21.176978881238394
20
24.0727560480967
10
-51.186819823921823
20
54.082689176285101
42
-0.93825080769220093
0
SPLINE
5
111
100
AcDbEntity
8
0
100
AcDbSpline
70
0
71
3
72
26
73
22
74
0
42
0.000000001
43
0.0000000001
44
0.0000000001
40
0.063575744662796807
40
0.063575744662796807
40
0.063575744662796807
40
0.063575744662796807
40
1.7927844604832264
40
1.7927844604832264
40
2.9870465767574492
40
2.9870465767574492
40
4.8861396859003312
40
4.8861396859003312
40
7.858674970941391
40
7.858674970941391
40
9.8883831569184597
40
9.8883831569184597
40
10.699722532449695
40
10.699722532449695
40
11.153865181793178
40
11.153865181793178
40
11.545078136960152
40
11.545078136960152
40
12.041845962516206
40
12.041845962516206
40
13.789001753729627
40
13.789001753729627
40
13.789001753729627
40
13.789001753729627
10
-49.99999692292527
20
-270
30
0
10
-45.943026615282804
20
-265.16385481908338
30
0
10
-37.280277547180503
20
-254.69836647464359
30
0
10
-27.450093374780483
20
-239.20922467813602
30
0
10
-24.685205169531798
20
-233.43567611515084
30
0
10
-17.680601986584453
20
-213.24195869605086
30
0
10
-13.335140404838038
20
-194.87839804808874
30
0
10
-5.9834876343990384
20
-158.1893013541453
30
0
10
0.42522915803942019
20
-119.01772894744329
30
0
10
-6.3117958274669936
20
-62.331237377113027
30
0
10
-12.870484702649804
20
-49.516060769725797
30
0
10
-19.63622264215504
20
-35.418537855708678
30
0
10
-21.223444755003278
20
-31.972951112376148
30
0
10
-22.384452480735103
20
-27.017275608112556
30
0
10
-22.562528849258566
20
-25.213027475258293
30
0
10
-22.075370498509727
20
-21.835951737636798
30
0
10
-21.542353174838734
20
-20.393628113588367
30
0
10
-19.73639658866205
20
-17.308601291207566
30
0
10
-18.34341903241603
20
-15.790771122139549
30
0
10
-11.587732345962426
20
-9.8492175854352233
30
0
10
-3.665389119694205
20
-6.4960354469864612
30
0
10
0
20
-5
30
0
0
LINE
5
112
100
AcDbEntity
8
0
100
AcDbLine
10
-8.4691351891745993e-16
20
-5
30
0
11
0
21
0
31
0
0
ARC
5
113
100
AcDbEntity
8
0
100
AcDbCircle
10
-75
20
0
30
0
40
75
210
0
220
-0
230
1
100
AcDbArc
50
0
51
180
0
LINE
5
114
100
AcDbEntity
8
0
100
AcDbLine
10
-150
20
4.5924254968025752e-15
30
0
11
-150
21
-4.9759497339550016
31
0
0
SPLINE
5
115
100
AcDbEntity
8
0
100
AcDbSpline
70
0
71
3
72
26
73
22
74
0
42
0.000000001
43
0.0000000001
44
0.0000000001
40
0.062271236629511673
40
0.062271236629511673
40
0.062271236629511673
40
0.062271236629511673
40
1.8051827636316253
40
1.8051827636316253
40
3.0004843344912917
40
3.0004843344912917
40
4.9146260340802765
40
4.9146260340802765
40
8.9615970474636466
40
8.9615970474636466
40
11.976191145851283
40
11.976191145851283
40
13.177826503501006
40
13.177826503501006
40
13.875400115078833
40
13.875400115078833
40
14.492351897371744
40
14.492351897371744
40
15.27304996276966
40
15.27304996276966
40
18.032704290853207
40
18.032704290853207
40
18.032704290853207
40
18.032704290853207
10
-99.999999999999929
20
-270
30
0
10
-104.06944279495031
20
-265.13129747721609
30
0
10
-112.76161529066862
20
-254.59242092439558
30
0
10
-122.55034742505421
20
-239.08738332092094
30
0
10
-125.30419492310104
20
-233.3119853786512
30
0
10
-132.34212447114263
20
-212.95663443419835
30
0
10
-136.58190693782777
20
-194.85390834607969
30
0
10
-144.88983781280157
20
-153.86884712425831
30
0
10
-150.03500669864363
20
-117.16851600739496
30
0
10
-143.74565010479273
20
-62.613630954881984
30
0
10
-137.15210969132286
20
-49.682159374960769
30
0
10
-130.33523328491509
20
-35.484545875347408
30
0
10
-128.73669125888608
20
-32.025622554832793
30
0
10
-127.54562218027495
20
-26.987674322926097
30
0
10
-127.38550799483635
20
-25.197980313588751
30
0
10
-127.85755035077128
20
-21.864829046137181
30
0
10
-128.38695662024671
20
-20.42061956056417
30
0
10
-130.18427364117281
20
-17.3360697826419
30
0
10
-131.56966134388807
20
-15.820409204348111
30
0
10
-138.32244769513846
20
-9.8608018830823525
30
0
10
-146.27666758703941
20
-6.4957259673539625
30
0
10
-150
20
-4.9759497339550016
30
0
0
LINE
5
116
100
AcDbEntity
8
0
100
AcDbLine
10
-99.999999999999929
20
-270
30
0
11
-49.99999692292527
21
-270
31
0
0
CIRCLE
5
117
100
AcDbEntity
8
0
100
AcDbCircle
10
-130
20
0
30
0
40
1.5000000000000002
210
0
220
-0
230
1
0
CIRCLE
5
118
100
AcDbEntity
8
0
100
AcDbCircle
10
-75
20
-250
30
0
40
1.5000000000000002
210
0
220
-0
230
1
0
CIRCLE
5
119
100
AcDbEntity
8
0
100
AcDbCircle
10
-20
20
-200
30
0
40
1.5000000000000002
210
0
220
-0
230
1
0
CIRCLE
5
120
100
AcDbEntity
8
0
100
AcDbCircle
10
-20
20
-50
30
0
40
1.5000000000000002
210
0
220
-0
230
1
0
CIRCLE
5
121
100
AcDbEntity
8
0
100
AcDbCircle
10
-130
20
-50
30
0
40
1.5000000000000002
210
0
220
-0
230
1
0
CIRCLE
5
122
100
AcDbEntity
8
0
100
AcDbCircle
10
-130
20
-200
30
0
40
1.5000000000000002
210
0
220
-0
230
1
0
CIRCLE
5
123
100
AcDbEntity
8
0
100
AcDbCircle
10
-20
20
0
30
0
40
1.5000000000000002
210
0
220
-0
230
1
0
CIRCLE
5
124
100
AcDbEntity
8
0
100
AcDbCircle
10
-75
20
55
30
0
40
1.5000000000000002
210
0
220
-0
230
1
0
CIRCLE
5
125
100
AcDbEntity
8
0
100
AcDbCircle
10
-130
20
-125
30
0
40
1.5000000000000002
210
0
220
-0
230
1
0
CIRCLE
5
126
100
AcDbEntity
8
0
100
AcDbCircle
10
-20
20
-125
30
0
40
1.5000000000000002
210
0
220
-0
230
1
0
LWPOLYLINE
5
127
100
AcDbEntity
8
0
100
AcDbPolyline
90
4
70
1
43
0.0
10
-130.91179709155946
20
26.205399471370491
10
-101.13872142774484
20
55.976380307082394
42
-1.0662424794175331
10
-98.995448513682604
20
53.886055884866209
10
-128.79039040673757
20
24.084165484804121
42
-1.000075889394064
0
LWPOLYLINE
5
128
100
AcDbEntity
8
0
100
AcDbPolyline
90
4
70
1
43
0.0
10
-63.477778686856439
20
34.032754433308646
10
-86.477778686856439
20
34.032754433308646
10
-86.477778686856439
20
46.032754433308654
10
-63.477778686856439
20
46.032754433308654
0
CIRCLE
5
129
100
AcDbEntity
8
0
100
AcDbCircle
10
-51.596116590686307
20
-191.07201871155527
30
0
40
0.99999999999999645
210
0
220
-0
230
1
0
CIRCLE
5
130
100
AcDbEntity
8
0
100
AcDbCircle
10
-98.34701255561535
20
-191.06914083423402
30
0
40
0.99999999999999645
210
0
220
-0
230
1
0
LWPOLYLINE
5
131
100
AcDbEntity
8
0
100
AcDbPolyline
90
4
70
1
43
0.0
10
-110.90707545362726
20
1.2624124267920978
10
-117.97814326549273
20
-5.8086553850733722
10
-120.09946360905238
20
-3.687335041513716
10
-113.0283957971869
20
3.3837327703517541
0
LWPOLYLINE
5
132
100
AcDbEntity
8
0
100
AcDbPolyline
90
4
70
1
43
0.0
10
-22.742575656676742
20
-14.999997653451025
10
-29.813644061735914
20
-7.9289305559836185
10
-27.692323630803102
20
-5.8076102997971555
10
-20.62125619010212
20
-12.878678482827102
0
LWPOLYLINE
5
133
100
AcDbEntity
8
0
100
AcDbPolyline
90
4
70
1
43
0.0
10
-39.007076016339127
20
1.2624138003493777
10
-36.885755594902612
20
3.3837340660321451
10
-29.814687927857474
20
-3.6873339096462292
10
-31.936008397561505
20
-5.8086542046039469
0
ENDSEC
0
SECTION
2
OBJECTS
0
DICTIONARY
5
C
100
AcDbDictionary
3
ACAD_GROUP
350
D
3
ACAD_MLINESTYLE
350
17
0
DICTIONARY
5
D
100
AcDbDictionary
0
DICTIONARY
5
1A
330
C
100
AcDbDictionary
0
DICTIONARY
5
17
100
AcDbDictionary
0
ENDSEC
0
EOF
